<svg width="209" height="220" viewBox="0 0 209 220" fill="none" xmlns="http://www.w3.org/2000/svg">
<path d="M43.875 85L11 72.5" stroke="#E5E7EB" stroke-width="20" stroke-linecap="round" stroke-linejoin="round"/>
<path d="M214.125 135H182.875" stroke="#E5E7EB" stroke-width="20" stroke-linecap="round" stroke-linejoin="round"/>
<path d="M89.125 135H57.8749" stroke="#E5E7EB" stroke-width="20" stroke-linecap="round" stroke-linejoin="round"/>
<path d="M228.238 84.9999L217.75 34.85C214.713 20.375 201.95 10 187.15 10H86.1501C71.6376 10 59.0251 20 55.7251 34.1375L43.8376 84.9999" stroke="#E5E7EB" stroke-width="20" stroke-linecap="round" stroke-linejoin="round"/>
<path d="M26.625 210H54.75C65.1 210 73.5 201.6 73.5 191.25V178.75H198.5V191.25C198.5 201.6 206.9 210 217.25 210H245.375C254 210 261 203 261 194.375V122.5C261 101.787 244.213 84.9999 223.5 84.9999H48.5C27.7875 84.9999 11 101.787 11 122.5V194.375C11 203 18 210 26.625 210Z" stroke="#E5E7EB" stroke-width="20" stroke-linecap="round" stroke-linejoin="round"/>
</svg>
