<svg width="22" height="19" viewBox="0 0 22 19" fill="none" xmlns="http://www.w3.org/2000/svg">
<path d="M8 12H14" stroke="#475569" stroke-width="1.5" stroke-linecap="round" stroke-linejoin="round"/>
<path d="M8 15H14" stroke="#475569" stroke-width="1.5" stroke-linecap="round" stroke-linejoin="round"/>
<path d="M2 18V7.03302V7.03349C2 6.30721 2.39373 5.63801 3.02859 5.28525L10.5146 1.12625V1.12625C10.8165 0.958567 11.1836 0.958567 11.4856 1.12625L18.9706 5.28425V5.28425C19.6059 5.63689 20 6.30638 20 7.03302V18" stroke="#475569" stroke-width="1.5" stroke-linecap="round" stroke-linejoin="round"/>
<path d="M21 18H1" stroke="#475569" stroke-width="1.5" stroke-linecap="round" stroke-linejoin="round"/>
<path d="M5 18V10V10C5 9.44771 5.44771 9 6 9H16V9C16.5523 9 17 9.44771 17 10V18" stroke="#475569" stroke-width="1.5" stroke-linecap="round" stroke-linejoin="round"/>
<path d="M9 6H13" stroke="#475569" stroke-width="1.5" stroke-linecap="round" stroke-linejoin="round"/>
</svg>
