<svg width="12" height="10" viewBox="0 0 12 10" fill="none" xmlns="http://www.w3.org/2000/svg">
<path d="M4.5 6.5H7.5" stroke="#4299E1" stroke-linecap="round" stroke-linejoin="round"/>
<path d="M4.5 8H7.5" stroke="#4299E1" stroke-linecap="round" stroke-linejoin="round"/>
<path d="M1.5 9.50001V4.01651V4.01675C1.5 3.6536 1.69686 3.31901 2.01429 3.14263L5.7573 1.06313V1.06313C5.90827 0.979284 6.09182 0.979284 6.24279 1.06313L9.9853 3.14213V3.14213C10.303 3.31844 10.5 3.65319 10.5 4.01651V9.50001" stroke="#4299E1" stroke-linecap="round" stroke-linejoin="round"/>
<path d="M11 9.5H1" stroke="#4299E1" stroke-linecap="round" stroke-linejoin="round"/>
<path d="M3 9.5V5.5V5.5C3 5.22386 3.22386 5 3.5 5H8.5V5C8.77614 5 9 5.22386 9 5.5V9.5" stroke="#4299E1" stroke-linecap="round" stroke-linejoin="round"/>
<path d="M5 3.5H7" stroke="#4299E1" stroke-linecap="round" stroke-linejoin="round"/>
</svg>
