<svg width="10" height="8" viewBox="0 0 10 8" fill="none" xmlns="http://www.w3.org/2000/svg">
<path fill-rule="evenodd" clip-rule="evenodd" d="M9.6949 0.705073C9.82613 0.836342 9.89985 1.01436 9.89985 1.19997C9.89985 1.38559 9.82613 1.5636 9.6949 1.69487L4.0949 7.29487C3.96363 7.4261 3.78562 7.49982 3.6 7.49982C3.41439 7.49982 3.23637 7.4261 3.1051 7.29487L0.305103 4.49487C0.177592 4.36285 0.107036 4.18603 0.108631 4.00249C0.110226 3.81895 0.183844 3.64339 0.31363 3.5136C0.443415 3.38381 0.618984 3.3102 0.802522 3.3086C0.986059 3.30701 1.16288 3.37756 1.2949 3.50507L3.6 5.81017L8.7051 0.705073C8.83637 0.573843 9.01439 0.500122 9.2 0.500122C9.38562 0.500122 9.56363 0.573843 9.6949 0.705073Z" fill="white"/>
</svg>
