<svg width="14" height="14" viewBox="0 0 14 14" fill="none" xmlns="http://www.w3.org/2000/svg">
<path d="M2.13702 12.035C1.46845 11.3893 0.935171 10.6169 0.568308 9.76285C0.201445 8.90882 0.00834101 7.99028 0.000264297 7.06082C-0.00781242 6.13137 0.169299 5.20961 0.521266 4.34934C0.873232 3.48906 1.393 2.7075 2.05025 2.05025C2.7075 1.393 3.48906 0.873232 4.34934 0.521266C5.20961 0.169299 6.13137 -0.00781242 7.06083 0.000264297C7.99028 0.00834101 8.90882 0.201445 9.76285 0.568308C10.6169 0.935171 11.3893 1.46845 12.035 2.13702C13.3101 3.45723 14.0157 5.22545 13.9997 7.06082C13.9838 8.8962 13.2476 10.6519 11.9497 11.9497C10.6519 13.2476 8.8962 13.9838 7.06083 13.9997C5.22545 14.0157 3.45723 13.3101 2.13702 12.035ZM11.048 11.048C12.0988 9.99723 12.6891 8.57205 12.6891 7.08602C12.6891 5.59998 12.0988 4.1748 11.048 3.12402C9.99723 2.07323 8.57206 1.4829 7.08602 1.4829C5.59998 1.4829 4.17481 2.07323 3.12402 3.12402C2.07323 4.1748 1.4829 5.59998 1.4829 7.08602C1.4829 8.57205 2.07323 9.99723 3.12402 11.048C4.17481 12.0988 5.59998 12.6891 7.08602 12.6891C8.57206 12.6891 9.99723 12.0988 11.048 11.048ZM6.38602 7.78602V6.38602H7.78602V10.586H6.38602V7.78602ZM6.38602 3.58602H7.78602V4.98602H6.38602V3.58602Z" fill="#E02424"/>
</svg>
